/* XPM */
static char *acunar16_xpm[] = {
/* width height num_colors chars_per_pixel */
"    16    16      256            2",
/* colors */
"`` c #000000",
"`. c #004194",
"`# c #004294",
"`a c #004293",
"`b c #0055aa",
"`c c #004193",
"`d c #3f6ea4",
"`e c #5b7871",
"`f c #104c99",
"`g c #e2d067",
"`h c #eac30c",
"`i c #124b88",
"`j c #a2b8cc",
"`k c #ffcd05",
"`l c #ffcc00",
"`m c #96923c",
"`n c #3064a7",
"`o c #feeca4",
"`p c #ffc800",
"`q c #fac602",
"`r c #1f5281",
"`s c #b4c7df",
"`t c #ffdc65",
"`u c #ffc400",
"`v c #9a903a",
"`w c #3266a8",
"`x c #ffffff",
"`y c #ffd550",
"`z c #ffc100",
"`A c #ffc000",
"`B c #fabf02",
"`C c #1a4e84",
"`D c #92add0",
"`E c #ffd760",
"`F c #ffbd00",
"`G c #ffbe00",
"`H c #797d4d",
"`I c #044394",
"`J c #eaeff6",
"`K c #bdcde3",
"`L c #7f96a6",
"`M c #d9ad28",
"`N c #ffb900",
"`O c #ffba00",
"`P c #daa915",
"`Q c #4775b1",
"`R c #728382",
"`S c #f5b206",
"`T c #ffb600",
"`U c #3a5f7c",
"`V c #7b9cc7",
"`W c #245ba2",
"`X c #285b98",
"`Y c #cca12d",
"`Z c #ffb200",
"`0 c #7b7952",
"`1 c #527eb5",
"`2 c #064595",
"`3 c #968e62",
"`4 c #b48f2b",
"`5 c #144f9b",
"`6 c #4b6d8f",
"`7 c #000000",
"`8 c #000000",
".` c #000000",
".. c #000000",
".# c #000000",
".a c #000000",
".b c #000000",
".c c #000000",
".d c #000000",
".e c #000000",
".f c #000000",
".g c #000000",
".h c #000000",
".i c #000000",
".j c #000000",
".k c #000000",
".l c #000000",
".m c #000000",
".n c #000000",
".o c #000000",
".p c #000000",
".q c #000000",
".r c #000000",
".s c #000000",
".t c #000000",
".u c #000000",
".v c #000000",
".w c #000000",
".x c #000000",
".y c #000000",
".z c #000000",
".A c #000000",
".B c #000000",
".C c #000000",
".D c #000000",
".E c #000000",
".F c #000000",
".G c #000000",
".H c #000000",
".I c #000000",
".J c #000000",
".K c #000000",
".L c #000000",
".M c #000000",
".N c #000000",
".O c #000000",
".P c #000000",
".Q c #000000",
".R c #000000",
".S c #000000",
".T c #000000",
".U c #000000",
".V c #000000",
".W c #000000",
".X c #000000",
".Y c #000000",
".Z c #000000",
".0 c #000000",
".1 c #000000",
".2 c #000000",
".3 c #000000",
".4 c #000000",
".5 c #000000",
".6 c #000000",
".7 c #000000",
".8 c #000000",
"#` c #000000",
"#. c #000000",
"## c #000000",
"#a c #000000",
"#b c #000000",
"#c c #000000",
"#d c #000000",
"#e c #000000",
"#f c #000000",
"#g c #000000",
"#h c #000000",
"#i c #000000",
"#j c #000000",
"#k c #000000",
"#l c #000000",
"#m c #000000",
"#n c #000000",
"#o c #000000",
"#p c #000000",
"#q c #000000",
"#r c #000000",
"#s c #000000",
"#t c #000000",
"#u c #000000",
"#v c #000000",
"#w c #000000",
"#x c #000000",
"#y c #000000",
"#z c #000000",
"#A c #000000",
"#B c #000000",
"#C c #000000",
"#D c #000000",
"#E c #000000",
"#F c #000000",
"#G c #000000",
"#H c #000000",
"#I c #000000",
"#J c #000000",
"#K c #000000",
"#L c #000000",
"#M c #000000",
"#N c #000000",
"#O c #000000",
"#P c #000000",
"#Q c #000000",
"#R c #000000",
"#S c #000000",
"#T c #000000",
"#U c #000000",
"#V c #000000",
"#W c #000000",
"#X c #000000",
"#Y c #000000",
"#Z c #000000",
"#0 c #000000",
"#1 c #000000",
"#2 c #000000",
"#3 c #000000",
"#4 c #000000",
"#5 c #000000",
"#6 c #000000",
"#7 c #000000",
"#8 c #000000",
"a` c #000000",
"a. c #000000",
"a# c #000000",
"aa c #000000",
"ab c #000000",
"ac c #000000",
"ad c #000000",
"ae c #000000",
"af c #000000",
"ag c #000000",
"ah c #000000",
"ai c #000000",
"aj c #000000",
"ak c #000000",
"al c #000000",
"am c #000000",
"an c #000000",
"ao c #000000",
"ap c #000000",
"aq c #000000",
"ar c #000000",
"as c #000000",
"at c #000000",
"au c #000000",
"av c #000000",
"aw c #000000",
"ax c #000000",
"ay c #000000",
"az c #000000",
"aA c #000000",
"aB c #000000",
"aC c #000000",
"aD c #000000",
"aE c #000000",
"aF c #000000",
"aG c #000000",
"aH c #000000",
"aI c #000000",
"aJ c #000000",
"aK c #000000",
"aL c #000000",
"aM c #000000",
"aN c #000000",
"aO c #000000",
"aP c #000000",
"aQ c #000000",
"aR c #000000",
"aS c #000000",
"aT c #000000",
"aU c #000000",
"aV c #000000",
"aW c #000000",
"aX c #000000",
"aY c #000000",
"aZ c #000000",
"a0 c #000000",
"a1 c #000000",
"a2 c #000000",
"a3 c #000000",
"a4 c #000000",
"a5 c #000000",
"a6 c #000000",
"a7 c #000000",
"a8 c #000000",
/* pixels */
"`````````.`#`a`.`.`a`#`.````````",
"`````b`.`a`c`c`d`e`c`c`a`.`b````",
"```b`a`c`c`c`f`g`h`i`c`c`c`a`b``",
"```.`c`c`c`c`j`k`l`m`c`c`c`c`.``",
"`.`a`c`c`c`n`o`p`p`q`r`c`c`c`a`.",
"`#`c`c`c`c`s`t`u`u`u`v`c`c`c`c`#",
"`a`c`c`c`w`x`y`z`z`A`B`C`c`c`c`a",
"`.`c`c`c`D`x`E`F`F`G`F`H`c`c`c`.",
"`.`c`c`I`J`K`L`M`N`O`N`P`c`c`c`.",
"`a`c`c`Q`K`I`c`I`R`S`T`T`U`c`c`a",
"`#`c`c`V`W`c`c`c`c`X`Y`Z`0`c`c`#",
"`.`a`c`1`c`c`c`c`c`c`2`3`4`c`a`.",
"```.`c`5`c`c`c`c`c`c`c`c`6`c`.``",
"```b`a`c`c`c`c`c`c`c`c`c`c`a`b``",
"`````b`.`a`c`c`c`c`c`c`a`.`b````",
"`````````.`#`a`.`.`a`#`.````````"
};
