/* XPM */
static char *acunar32_xpm[] = {
/* width height num_colors chars_per_pixel */
"    32    32      256            2",
/* colors */
"`` c #000000",
"`. c #0055aa",
"`# c #004493",
"`a c #004193",
"`b c #004194",
"`c c #004294",
"`d c #004a95",
"`e c #004293",
"`f c #7a928e",
"`g c #084692",
"`h c #0049b6",
"`i c #004393",
"`j c #4171ac",
"`k c #ffd613",
"`l c #818b48",
"`m c #094796",
"`n c #dcd599",
"`o c #ffd000",
"`p c #f8cd04",
"`q c #205380",
"`r c #004396",
"`s c #8ba8cd",
"`t c #ffd82c",
"`u c #ffcf00",
"`v c #a39c35",
"`w c #3367a8",
"`x c #fcf0bb",
"`y c #ffcc00",
"`z c #ffcd00",
"`A c #fdcc01",
"`B c #2e5a78",
"`C c #c9d6e8",
"`D c #ffe168",
"`E c #ffcb00",
"`F c #ae9f2e",
"`G c #4574b0",
"`H c #ffffff",
"`I c #ffd222",
"`J c #ffca00",
"`K c #feca00",
"`L c #2b587a",
"`M c #bfcfe3",
"`N c #fff8dc",
"`O c #ffc700",
"`P c #ffc800",
"`Q c #a59733",
"`R c #386aaa",
"`S c #ffe896",
"`T c #ffc600",
"`U c #fbc402",
"`V c #1d5082",
"`W c #b2c5de",
"`X c #ffdd6b",
"`Y c #ffc400",
"`Z c #8a8843",
"`0 c #2d62a6",
"`1 c #fefefe",
"`2 c #ffd85b",
"`3 c #ffc300",
"`4 c #ffc200",
"`5 c #eeba09",
"`6 c #0b478c",
"`7 c #9bb4d4",
"`8 c #ffd44b",
".` c #ffc000",
".. c #ffc100",
".# c #657458",
".a c #044394",
".b c #ecf0f6",
".c c #ffd040",
".d c #ffbf00",
".e c #c8a41f",
".f c #4675b0",
".g c #ffd868",
".h c #ffbe00",
".i c #ffbd00",
".j c #2b577a",
".k c #9ab3d4",
".l c #ffe6a1",
".m c #ffbc00",
".n c #ffbb00",
".o c #8b8342",
".p c #034394",
".q c #ebf0f6",
".r c #f9fafc",
".s c #97b1d2",
".t c #7e9ab8",
".u c #cfa726",
".v c #ffba00",
".w c #ffb900",
".x c #deaa13",
".y c #4372af",
".z c #52748e",
".A c #e1ac19",
".B c #ffb800",
".C c #2f5777",
".D c #6b90c0",
".E c #0c4997",
".F c #9a8f56",
".G c #ffb600",
".H c #ffb700",
".I c #7f7c49",
".J c #d3deec",
".K c #c6d4e6",
".L c #014193",
".M c #536f81",
".N c #f0ad08",
".O c #ffb400",
".P c #c59a21",
".Q c #074695",
".R c #fbfcfd",
".S c #3b6cab",
".T c #225692",
".U c #d19f1c",
".V c #ffb300",
".W c #f9b003",
".X c #09458f",
".Y c #bbcce2",
".Z c #0a4895",
".0 c #a78e3c",
".1 c #ffb100",
".2 c #415e6f",
".3 c #638abc",
".4 c #4876b1",
".5 c #7c7d5e",
".6 c #feaf00",
".7 c #ffb000",
".8 c #79764d",
"#` c #6c91c0",
"#. c #546d7d",
"## c #f6a905",
"#a c #a58633",
"#b c #396bab",
"#c c #386290",
"#d c #bb9029",
"#e c #1b5397",
"#f c #000000",
"#g c #000000",
"#h c #000000",
"#i c #000000",
"#j c #000000",
"#k c #000000",
"#l c #000000",
"#m c #000000",
"#n c #000000",
"#o c #000000",
"#p c #000000",
"#q c #000000",
"#r c #000000",
"#s c #000000",
"#t c #000000",
"#u c #000000",
"#v c #000000",
"#w c #000000",
"#x c #000000",
"#y c #000000",
"#z c #000000",
"#A c #000000",
"#B c #000000",
"#C c #000000",
"#D c #000000",
"#E c #000000",
"#F c #000000",
"#G c #000000",
"#H c #000000",
"#I c #000000",
"#J c #000000",
"#K c #000000",
"#L c #000000",
"#M c #000000",
"#N c #000000",
"#O c #000000",
"#P c #000000",
"#Q c #000000",
"#R c #000000",
"#S c #000000",
"#T c #000000",
"#U c #000000",
"#V c #000000",
"#W c #000000",
"#X c #000000",
"#Y c #000000",
"#Z c #000000",
"#0 c #000000",
"#1 c #000000",
"#2 c #000000",
"#3 c #000000",
"#4 c #000000",
"#5 c #000000",
"#6 c #000000",
"#7 c #000000",
"#8 c #000000",
"a` c #000000",
"a. c #000000",
"a# c #000000",
"aa c #000000",
"ab c #000000",
"ac c #000000",
"ad c #000000",
"ae c #000000",
"af c #000000",
"ag c #000000",
"ah c #000000",
"ai c #000000",
"aj c #000000",
"ak c #000000",
"al c #000000",
"am c #000000",
"an c #000000",
"ao c #000000",
"ap c #000000",
"aq c #000000",
"ar c #000000",
"as c #000000",
"at c #000000",
"au c #000000",
"av c #000000",
"aw c #000000",
"ax c #000000",
"ay c #000000",
"az c #000000",
"aA c #000000",
"aB c #000000",
"aC c #000000",
"aD c #000000",
"aE c #000000",
"aF c #000000",
"aG c #000000",
"aH c #000000",
"aI c #000000",
"aJ c #000000",
"aK c #000000",
"aL c #000000",
"aM c #000000",
"aN c #000000",
"aO c #000000",
"aP c #000000",
"aQ c #000000",
"aR c #000000",
"aS c #000000",
"aT c #000000",
"aU c #000000",
"aV c #000000",
"aW c #000000",
"aX c #000000",
"aY c #000000",
"aZ c #000000",
"a0 c #000000",
"a1 c #000000",
"a2 c #000000",
"a3 c #000000",
"a4 c #000000",
"a5 c #000000",
"a6 c #000000",
"a7 c #000000",
"a8 c #000000",
/* pixels */
"`````````````````````.`#`a`b`c`b`b`c`b`a`#`.````````````````````",
"`````````````````d`c`e`a`a`a`a`f`g`a`a`a`a`e`c`d````````````````",
"`````````````h`i`e`a`a`a`a`a`j`k`l`a`a`a`a`a`a`e`i`h````````````",
"```````````d`a`a`a`a`a`a`a`m`n`o`p`q`a`a`a`a`a`a`a`a`d``````````",
"`````````r`a`a`a`a`a`a`a`a`s`t`u`u`v`a`a`a`a`a`a`a`a`a`#````````",
"```````d`a`a`a`a`a`a`a`a`w`x`y`z`y`A`B`a`a`a`a`a`a`a`a`a`d``````",
"`````h`a`a`a`a`a`a`a`a`a`C`D`y`E`y`E`F`a`a`a`a`a`a`a`a`a`a`h````",
"`````i`a`a`a`a`a`a`a`a`G`H`I`J`J`J`J`K`L`a`a`a`a`a`a`a`a`a`i````",
"```d`e`a`a`a`a`a`a`a`a`M`N`O`O`P`O`P`P`Q`a`a`a`a`a`a`a`a`a`e`d``",
"```c`a`a`a`a`a`a`a`a`R`H`S`T`T`T`T`T`T`U`V`a`a`a`a`a`a`a`a`a`c``",
"`.`e`a`a`a`a`a`a`a`a`W`H`X`Y`Y`Y`Y`Y`Y`Y`Z`a`a`a`a`a`a`a`a`a`e`.",
"`#`a`a`a`a`a`a`a`a`0`1`H`2`3`3`4`3`4`4`3`5`6`a`a`a`a`a`a`a`a`a`#",
"`a`a`a`a`a`a`a`a`a`7`H`H`8.`.`...`.....`...#`a`a`a`a`a`a`a`a`a`a",
"`b`a`a`a`a`a`a`a.a.b`H`H.c.d.d.d.d.d.d.d.d.e`a`a`a`a`a`a`a`a`a`b",
"`c`a`a`a`a`a`a`a.f`H`H`H.g.h.h.i.h.i.i.h.i.h.j`a`a`a`a`a`a`a`a`c",
"`b`a`a`a`a`a`a`a.k`H`H`H.l.m.m.n.m.n.n.n.n.n.o`a`a`a`a`a`a`a`a`b",
"`b`a`a`a`a`a`a.p.q`H.r.s.t.u.v.v.v.v.v.w.v.w.x`a`a`a`a`a`a`a`a`b",
"`c`a`a`a`a`a`a.y`H.r.y`a`a`a.z.A.B.B.B.B.B.B.B.C`a`a`a`a`a`a`a`c",
"`b`a`a`a`a`a`a.s`H.D`a`a`a`a`a.E.F.G.G.H.G.H.H.I`a`a`a`a`a`a`a`b",
"`a`a`a`a`a`a`a.J.K.L`a`a`a`a`a`a`a.M.N.O.O.O.O.P`a`a`a`a`a`a`a`a",
"`#`a`a`a`a`a.Q.R.S`a`a`a`a`a`a`a`a`a.T.U.V.V.V.W.X`a`a`a`a`a`a`#",
"`.`e`a`a`a`a`w.Y`a`a`a`a`a`a`a`a`a`a`a.Z.0.1.1.1.2`a`a`a`a`a`e`.",
"```c`a`a`a`a.3.4`a`a`a`a`a`a`a`a`a`a`a`a`a.5.6.7.8`a`a`a`a`a`c``",
"```d`e`a`a`a#`.L`a`a`a`a`a`a`a`a`a`a`a`a`a`a#.###a`a`a`a`a`e`d``",
"`````i`a`a`a#b`a`a`a`a`a`a`a`a`a`a`a`a`a`a`a`a#c#d`a`a`a`a`i````",
"`````h`a`a`a`m`a`a`a`a`a`a`a`a`a`a`a`a`a`a`a`a`a#e`a`a`a`a`h````",
"```````d`a`a`a`a`a`a`a`a`a`a`a`a`a`a`a`a`a`a`a`a`a`a`a`a`d``````",
"`````````r`a`a`a`a`a`a`a`a`a`a`a`a`a`a`a`a`a`a`a`a`a`a`#````````",
"```````````d`a`a`a`a`a`a`a`a`a`a`a`a`a`a`a`a`a`a`a`a`d``````````",
"`````````````h`i`e`a`a`a`a`a`a`a`a`a`a`a`a`a`a`e`i`h````````````",
"`````````````````d`c`e`a`a`a`a`a`a`a`a`a`a`e`c`d````````````````",
"`````````````````````.`#`a`b`c`b`b`c`b`a`#`.````````````````````"
};
