/* XPM */
static char *acunar64_xpm[] = {
/* width height num_colors chars_per_pixel */
"    64    64      256            2",
/* colors */
"`` c #040204",
"`. c #0482bc",
"`# c #848a4c",
"`a c #e4c20c",
"`b c #044294",
"`c c #546664",
"`d c #b4c6dc",
"`e c #04629c",
"`f c #c49624",
"`g c #2c567c",
"`h c #045694",
"`i c #fce684",
"`j c #c4b224",
"`k c #fcd64c",
"`l c #84a2cc",
"`m c #144a8c",
"`n c #dce6f4",
"`o c #7c7e4c",
"`p c #fcd204",
"`q c #04fefc",
"`r c #0446a4",
"`s c #547eac",
"`t c #ecb20c",
"`u c #7c864c",
"`v c #a49234",
"`w c #6c6e54",
"`x c #fcf6d4",
"`y c #044a94",
"`z c #dc9e14",
"`A c #ecbe0c",
"`B c #5482b4",
"`C c #2c62a4",
"`D c #7c929c",
"`E c #f4c604",
"`F c #fce284",
"`G c #1c5284",
"`H c #4c7694",
"`I c #f4ca04",
"`J c #5c725c",
"`K c #345e8c",
"`L c #8c8e44",
"`M c #c4a624",
"`N c #fceaa4",
"`O c #ecda7c",
"`P c #94b2d4",
"`Q c #fcae04",
"`R c #f4f6fc",
"`S c #1c529c",
"`T c #0c468c",
"`U c #c4d6e4",
"`V c #3c5a74",
"`W c #e4eef4",
"`X c #fcd624",
"`Y c #bc9a24",
"`Z c #0c4a8c",
"`0 c #6c92c4",
"`1 c #fce25c",
"`2 c #144e94",
"`3 c #6c7a54",
"`4 c #e4a60c",
"`5 c #fcba04",
"`6 c #648abc",
"`7 c #4472ac",
"`8 c #fcca04",
".` c #749ac4",
".. c #9c823c",
".# c #044694",
".a c #646e64",
".b c #345e74",
".c c #fcee94",
".d c #fcd664",
".e c #fcd614",
".f c #f4ae04",
".g c #b48e2c",
".h c #44626c",
".i c #fcc21c",
".j c #24527c",
".k c #64726c",
".l c #d4a614",
".m c #acbed4",
".n c #fcfef4",
".o c #eceef4",
".p c #eca60c",
".q c #4c7ab4",
".r c #fcca14",
".s c #546e64",
".t c #bccee4",
".u c #cc9e1c",
".v c #345a74",
".w c #fcea94",
".x c #dcae14",
".y c #8caacc",
".z c #1c4e84",
".A c #947e3c",
".B c #fcd60c",
".C c #044ab4",
".D c #ac8e34",
".E c #fcfae4",
".F c #044e9c",
".G c #f4ba04",
".H c #5c82bc",
".I c #fcc204",
".J c #dce2ec",
".K c #9c8e3c",
".L c #cca21c",
".M c #fcf2bc",
".N c #fcb604",
".O c #245aa4",
".P c #d4e2ec",
".Q c #0c4a9c",
".R c #747654",
".S c #4c76b4",
".T c #fcce04",
".U c #7c9ac4",
".V c #9c8a3c",
".W c #f4b204",
".X c #24568c",
".Y c #ecf2f4",
".Z c #0482fc",
".0 c #04429c",
".1 c #5c6a5c",
".2 c #04669c",
".3 c #c49a24",
".4 c #0456ac",
".5 c #fcda4c",
".6 c #8ca6cc",
".7 c #144e8c",
".8 c #e4eaf4",
"#` c #847a54",
"#. c #3c6eac",
"## c #4c6a84",
"#a c #fcda6c",
"#b c #2c5ea4",
"#c c #fcda3c",
"#d c #dcb614",
"#e c #94923c",
"#f c #ccdaec",
"#g c #445e6c",
"#h c #9cb6d4",
"#i c #fcfafc",
"#j c #7496c4",
"#k c #6c8ebc",
"#l c #c4d2e4",
"#m c #fceab4",
"#n c #fcfadc",
"#o c #4476b4",
"#p c #9c8634",
"#q c #647674",
"#r c #7c9ecc",
"#s c #044aa4",
"#t c #6c7254",
"#u c #5c765c",
"#v c #fcb204",
"#w c #1c569c",
"#x c #bc9e24",
"#y c #fcbe04",
"#z c #fcda64",
"#A c #ecaa0c",
"#B c #ac9234",
"#C c #f4be04",
"#D c #5c86bc",
"#E c #fcc604",
"#F c #747a54",
"#G c #fcd20c",
"#H c #547eb4",
"#I c #044a9c",
"#J c #fce28c",
"#K c #0c4694",
"#L c #0c4a94",
"#M c #144e9c",
"#N c #e4a614",
"#O c #fcca0c",
"#P c #04469c",
"#Q c #f4ae0c",
"#R c #245284",
"#S c #acbedc",
"#T c #fcfefc",
"#U c #345a7c",
"#V c #fcea9c",
"#W c #cca224",
"#X c #ecf2fc",
"#Y c #000000",
"#Z c #000000",
"#0 c #000000",
"#1 c #000000",
"#2 c #000000",
"#3 c #000000",
"#4 c #000000",
"#5 c #000000",
"#6 c #000000",
"#7 c #000000",
"#8 c #000000",
"a` c #000000",
"a. c #000000",
"a# c #000000",
"aa c #000000",
"ab c #000000",
"ac c #000000",
"ad c #000000",
"ae c #000000",
"af c #000000",
"ag c #000000",
"ah c #000000",
"ai c #000000",
"aj c #000000",
"ak c #000000",
"al c #000000",
"am c #000000",
"an c #000000",
"ao c #000000",
"ap c #000000",
"aq c #000000",
"ar c #000000",
"as c #000000",
"at c #000000",
"au c #000000",
"av c #000000",
"aw c #000000",
"ax c #000000",
"ay c #000000",
"az c #000000",
"aA c #000000",
"aB c #000000",
"aC c #000000",
"aD c #000000",
"aE c #000000",
"aF c #000000",
"aG c #000000",
"aH c #000000",
"aI c #000000",
"aJ c #000000",
"aK c #000000",
"aL c #000000",
"aM c #000000",
"aN c #000000",
"aO c #000000",
"aP c #000000",
"aQ c #000000",
"aR c #000000",
"aS c #000000",
"aT c #000000",
"aU c #000000",
"aV c #000000",
"aW c #000000",
"aX c #000000",
"aY c #000000",
"aZ c #000000",
"a0 c #000000",
"a1 c #000000",
"a2 c #000000",
"a3 c #000000",
"a4 c #000000",
"a5 c #000000",
"a6 c #000000",
"a7 c #000000",
"a8 c #000000",
/* pixels */
"`````````````````````````````````````````````````q.0`b`b`b`b`b`b`b`b`b`b`b`b`b.0````````````````````````````````````````````````",
"``````````````````````````````````````````.C`b`b`b`b`b`b`b`b`b`b`b`b`b`b`b`b`b`b`b`b`b`.````````````````````````````````````````",
"``````````````````````````````````````.#`b`b`b`b`b`b`b`b`b`b`b`b`H`b`b`b`b`b`b`b`b`b`b`b`b`b````````````````````````````````````",
"```````````````````````````````````b`b`b`b`b`b`b`b`b`b`b`b`b`b.q`p.b`b`b`b`b`b`b`b`b`b`b`b`b`b.#````````````````````````````````",
"```````````````````````````````y`b`b`b`b`b`b`b`b`b`b`b`b`b`b`m`O`p`j`b`b`b`b`b`b`b`b`b`b`b`b`b`b`b.F````````````````````````````",
"`````````````````````````````b`b`b`b`b`b`b`b`b`b`b`b`b`b`b`b.m.e`p`p`J`b`b`b`b`b`b`b`b`b`b`b`b`b`b`b`b``````````````````````````",
"```````````````````````````b`b`b`b`b`b`b`b`b`b`b`b`b`b`b`b#H.w`p`p`p`a`T`b`b`b`b`b`b`b`b`b`b`b`b`b`b`b`b````````````````````````",
"```````````````````````q`b`b`b`b`b`b`b`b`b`b`b`b`b`b`b`b`m.o`X.T.T.T.T`#`b`b`b`b`b`b`b`b`b`b`b`b`b`b`b`b`b``````````````````````",
"````````````````````#P`b`b`b`b`b`b`b`b`b`b`b`b`b`b`b`b`b.y.M`p`p.T`p.T`E`m`b`b`b`b`b`b`b`b`b`b`b`b`b`b`b`b`b.F``````````````````",
"```````````````````h`b`b`b`b`b`b`b`b`b`b`b`b`b`b`b`b`b#b#i`1.T.T.T.T.T.T`L`b`b`b`b`b`b`b`b`b`b`b`b`b`b`b`b`b`b.4````````````````",
"`````````````````q`b`b`b`b`b`b`b`b`b`b`b`b`b`b`b`b`b`b.t.E#G.T.T.T.T.T.T`I`m`b`b`b`b`b`b`b`b`b`b`b`b`b`b`b`b`b`b````````````````",
"`````````````````b`b`b`b`b`b`b`b`b`b`b`b`b`b`b`b`b`b.S#i#V.T.T.T.T.T.T.T.T#e`b`b`b`b`b`b`b`b`b`b`b`b`b`b`b`b`b`b`b``````````````",
"```````````````b`b`b`b`b`b`b`b`b`b`b`b`b`b`b`b`b`b`b.J#T#c.T`8.T`8.T`8.T`8#E.z`b`b`b`b`b`b`b`b`b`b`b`b`b`b`b`b`b`b`b````````````",
"`````````````b`b`b`b`b`b`b`b`b`b`b`b`b`b`b`b`b`b`b#k#T.E.T`8.T`8`8.T`8`8.T`8`L`b`b`b`b`b`b`b`b`b`b`b`b`b`b`b`b`b`b`b`b``````````",
"```````````.`b`b`b`b`b`b`b`b`b`b`b`b`b`b`b`b`b`b`b.o#T.w`8`8`8`8`8`8`8`8`8.T`E`m`b`b`b`b`b`b`b`b`b`b`b`b`b`b`b`b`b`b`b`q````````",
"```````````b`b`b`b`b`b`b`b`b`b`b`b`b`b`b`b`b`b`b#k#T#T.5`8`8`8`8`8`8`8`8`8`8`8`o`b`b`b`b`b`b`b`b`b`b`b`b`b`b`b`b`b`b`b`b````````",
"````````.0`b`b`b`b`b`b`b`b`b`b`b`b`b`b`b`b`b`b`b.8#T.n`8`8`8`8`8`8`8`8`8`8#E`8`A.#`b`b`b`b`b`b`b`b`b`b`b`b`b`b`b`b`b`b`b`y``````",
"`````````b`b`b`b`b`b`b`b`b`b`b`b`b`b`b`b`b`b`b#k#i#T.M#E`8#E`8#E`8#E`8#E`8`8`8`8`3`b`b`b`b`b`b`b`b`b`b`b`b`b`b`b`b`b`b`b`b``````",
"```````y`b`b`b`b`b`b`b`b`b`b`b`b`b`b`b`b`b`b`b.8#T#T`i#E#E`8#E#E`8#E#E`8#E#E#E#E#d`b`b`b`b`b`b`b`b`b`b`b`b`b`b`b`b`b`b`b`b`h````",
"```````b`b`b`b`b`b`b`b`b`b`b`b`b`b`b`b`b`b`b`6#i#T#T`k#E#E#E#E#E#E`8#E#E#E`8#E#E#E`c`b`b`b`b`b`b`b`b`b`b`b`b`b`b`b`b`b`b`b`b````",
"```````b`b`b`b`b`b`b`b`b`b`b`b`b`b`b`b`b`b`b.J#i#T#T.r#E#E#E#E#E#E#E#E#E#E#E#E#E#E`M`b`b`b`b`b`b`b`b`b`b`b`b`b`b`b`b`b`b`b`b````",
"````.#`b`b`b`b`b`b`b`b`b`b`b`b`b`b`b`b`b`b#.#i#T#T.E#E#E#E#E#E#E#E#E#E#E#E#E#E#E#E.I`g`b`b`b`b`b`b`b`b`b`b`b`b`b`b`b`b`b`b`b`b``",
"`````b`b`b`b`b`b`b`b`b`b`b`b`b`b`b`b`b`b`b.m#T#T#T.M.I#E.I#E.I#E.I.I.I.I.I.I.I.I#E.I.K`b`b`b`b`b`b`b`b`b`b`b`b`b`b`b`b`b`b`b`b``",
"`````b`b`b`b`b`b`b`b`b`b`b`b`b`b`b`b`b`b#R#i#T#T#T`N.I#E.I#E.I.I.I#E.I#E#E.I#E#E.I#E.G`T`b`b`b`b`b`b`b`b`b`b`b`b`b`b`b`b`b`b`b``",
"``.#`b`b`b`b`b`b`b`b`b`b`b`b`b`b`b`b`b`b.6#T#T#T#T`F.I.I.I.I.I#E.I.I.I.I.I.I.I.I.I.I.I#F`b`b`b`b`b`b`b`b`b`b`b`b`b`b`b`b`b`b`b.F",
"```b`b`b`b`b`b`b`b`b`b`b`b`b`b`b`b`b`b`b.o#T#T#T#T#a.I.I.I.I.I.I.I.I.I.I.I.I.I.I.I.I.I.x`b`b`b`b`b`b`b`b`b`b`b`b`b`b`b`b`b`b`b`b",
"```b`b`b`b`b`b`b`b`b`b`b`b`b`b`b`b`b`b.H#T#T#T#T#T#z.I.I.I.I.I#y.I.I#y.I.I#y.I.I.I.I.I#y#g`b`b`b`b`b`b`b`b`b`b`b`b`b`b`b`b`b`b`b",
"```b`b`b`b`b`b`b`b`b`b`b`b`b`b`b`b`b`b`d#T#T#T#T#T#z.I#y.I#y.I#y.I#y.I#y.I#y.I#y.I#y.I.I`v`b`b`b`b`b`b`b`b`b`b`b`b`b`b`b`b`b`b`b",
"```b`b`b`b`b`b`b`b`b`b`b`b`b`b`b`b`b`m#i#T#T#T#T#T#z#y.I#y.I#y#y#y#y#y#y#y#y#y#y#y#y#y#y.G`T`b`b`b`b`b`b`b`b`b`b`b`b`b`b`b`b`b`b",
"```b`b`b`b`b`b`b`b`b`b`b`b`b`b`b`b`b#k#T#T#T#T#T#T#a#y#y#y#y#y.I#y.I#y#y.I#y.I#y#y.I#y#y#y`J`b`b`b`b`b`b`b`b`b`b`b`b`b`b`b`b`b`b",
"```b`b`b`b`b`b`b`b`b`b`b`b`b`b`b`b`b#l#T#T#T#T#T#T.w`5#y#y#y#y#y#y#y#y#y#y#y#y#y#y#y#y#y#y`Y`b`b`b`b`b`b`b`b`b`b`b`b`b`b`b`b`b`b",
"```b`b`b`b`b`b`b`b`b`b`b`b`b`b`b`b.X#T#T#T#T#T#T#T#m#y#y#y#y#y#y#y#y#y#y#y#y#y#y`5#y`5#y`5`5.z`b`b`b`b`b`b`b`b`b`b`b`b`b`b`b`b`b",
"```b`b`b`b`b`b`b`b`b`b`b`b`b`b`b`b.U#T#T#T#T#T#T#T`x#y#y`5#y`5`5`5`5`5`5`5`5`5#y`5#y`5#y#y`5`o`b`b`b`b`b`b`b`b`b`b`b`b`b`b`b`b`b",
"```b`b`b`b`b`b`b`b`b`b`b`b`b`b`b`b#f#T#T#T#T#T#T#T#T.i`5#y`5#y#y`5#y`5#y#y`5#y`5`5#y`5`5`5`5.l`b`b`b`b`b`b`b`b`b`b`b`b`b`b`b`b`b",
"```b`b`b`b`b`b`b`b`b`b`b`b`b`b`b`m#T#T#T#T#T#T#T#T#T.d`5`5`5`5`5`5`5`5`5`5`5`5`5`5`5`5`5`5`5`5.j`b`b`b`b`b`b`b`b`b`b`b`b`b`b`b`b",
"```b`b`b`b`b`b`b`b`b`b`b`b`b`b`b`6#T#T#T#T#T#T.t.H#o`D.L`5`5`5`5`5`5`5`5`5`5`5`5`5`5`5`5`5`5`5.R`b`b`b`b`b`b`b`b`b`b`b`b`b`b`b`b",
"```b`b`b`b`b`b`b`b`b`b`b`b`b`b`b.m#T#T#T#T#T#D`b`b`b`b`b###W`5`5`5`5`5`5`5`5`5`5`5.N`5`5`5.N`5`Y`b`b`b`b`b`b`b`b`b`b`b`b`b`b`b`b",
"```b`b`b`b`b`b`b`b`b`b`b`b`b`b`b`R#T#T#T#T.S`b`b`b`b`b`b`b`b#q`t.N.N`5.N.N`5.N.N`5.N`5.N`5.N.N.N`m`b`b`b`b`b`b`b`b`b`b`b`b`b`b`b",
"```b`b`b`b`b`b`b`b`b`b`b`b`b`b#.#i#T#T#T.``b`b`b`b`b`b`b`b`b`b`m#B.N`5.N.N`5.N.N.N.N.N.N`5.N`5.N.1`b`b`b`b`b`b`b`b`b`b`b`b`b`b`b",
"``.#`b`b`b`b`b`b`b`b`b`b`b`b`b`l#i#T#T`d`b`b`b`b`b`b`b`b`b`b`b`b`b.k.W.N.N.N`5.N.N`5.N.N.N.N.N.N.D`b`b`b`b`b`b`b`b`b`b`b`b`b`b`b",
"`````b`b`b`b`b`b`b`b`b`b`b`b`b#l#T#T`R#w`b`b`b`b`b`b`b`b`b`b`b`b`b`b.X.u.N.N.N.N.N.N.N.N.N.N.N.N.f`b`b`b`b`b`b`b`b`b`b`b`b`b`b``",
"`````b`b`b`b`b`b`b`b`b`b`b`b`b#i#T#T.U`b`b`b`b`b`b`b`b`b`b`b`b`b`b`b`b.##p.N.N.N.N.N.N.N.N.N.N.N#v.v`b`b`b`b`b`b`b`b`b`b`b`b`b``",
"`````b`b`b`b`b`b`b`b`b`b`b`b`K#T#T`n.#`b`b`b`b`b`b`b`b`b`b`b`b`b`b`b`b`b`b.a.f#v#v#v#v#v#v#v#v.N#v`w`b`b`b`b`b`b`b`b`b`b`b`b`b``",
"````.Z`b`b`b`b`b`b`b`b`b`b`b#j#T#T`6`b`b`b`b`b`b`b`b`b`b`b`b`b`b`b`b`b`b`b`b`g`4.N.N.N.N#v.N#v#v.N.D`b`b`b`b`b`b`b`b`b`b`b`b````",
"```````b`b`b`b`b`b`b`b`b`b`b.m#i.8`b`b`b`b`b`b`b`b`b`b`b`b`b`b`b`b`b`b`b`b`b`b`m`f#v#v#v#v#v#v#v#v`4`b`b`b`b`b`b`b`b`b`b`b`b````",
"```````b`b`b`b`b`b`b`b`b`b`b.J#T`6`b`b`b`b`b`b`b`b`b`b`b`b`b`b`b`b`b`b`b`b`b`b`b`b#p#v#v#v#v#v#v#v`Q.j`b`b`b`b`b`b`b`b`b`b`b````",
"`````````b`b`b`b`b`b`b`b`b`m#i.o#P`b`b`b`b`b`b`b`b`b`b`b`b`b`b`b`b`b`b`b`b`b`b`b`b`b.R`Q`Q#v#v#v#v`Q.1`b`b`b`b`b`b`b`b`b`b``````",
"`````````b`b`b`b`b`b`b`b`b.S#T`l`b`b`b`b`b`b`b`b`b`b`b`b`b`b`b`b`b`b`b`b`b`b`b`b`b`b`b`c.f`Q`Q`Q#v`Q..`b`b`b`b`b`b`b`b`b`b``````",
"```````````b`b`b`b`b`b`b`b#k#i`S`b`b`b`b`b`b`b`b`b`b`b`b`b`b`b`b`b`b`b`b`b`b`b`b`b`b`b`b`V.p`Q`Q#v`Q`f`b`b`b`b`b`b`b`b`b````````",
"``````````.F`b`b`b`b`b`b`b`P#S`b`b`b`b`b`b`b`b`b`b`b`b`b`b`b`b`b`b`b`b`b`b`b`b`b`b`b`b`b`b.j`z`Q`Q`Q.p`b`b`b`b`b`b`b`b.2````````",
"`````````````b`b`b`b`b`b`b.t#.`b`b`b`b`b`b`b`b`b`b`b`b`b`b`b`b`b`b`b`b`b`b`b`b`b`b`b`b`b`b`b`T`f`Q`Q`Q.z`b`b`b`b`b`b`b``````````",
"```````````````b`b`b`b`b`b.t`b`b`b`b`b`b`b`b`b`b`b`b`b`b`b`b`b`b`b`b`b`b`b`b`b`b`b`b`b`b`b`b`b`T.g`Q`Q#g`b`b`b`b`b`b````````````",
"`````````````````b`b`b`b`b.U`b`b`b`b`b`b`b`b`b`b`b`b`b`b`b`b`b`b`b`b`b`b`b`b`b`b`b`b`b`b`b`b`b`b`b..`Q`w`b`b`b`b`b``````````````",
"`````````````````e`b`b`b.z`S`b`b`b`b`b`b`b`b`b`b`b`b`b`b`b`b`b`b`b`b`b`b`b`b`b`b`b`b`b`b`b`b`b`b`b`b.R.A`b`b`b`b`q``````````````",
"```````````````````b`b`b#K`b`b`b`b`b`b`b`b`b`b`b`b`b`b`b`b`b`b`b`b`b`b`b`b`b`b`b`b`b`b`b`b`b`b`b`b`b`b#U`b`b`b`b````````````````",
"`````````````````````b`b`b`b`b`b`b`b`b`b`b`b`b`b`b`b`b`b`b`b`b`b`b`b`b`b`b`b`b`b`b`b`b`b`b`b`b`b`b`b`b`b`b`b`b``````````````````",
"``````````````````````.C`b`b`b`b`b`b`b`b`b`b`b`b`b`b`b`b`b`b`b`b`b`b`b`b`b`b`b`b`b`b`b`b`b`b`b`b`b`b`b`b`b.F````````````````````",
"```````````````````````````b`b`b`b`b`b`b`b`b`b`b`b`b`b`b`b`b`b`b`b`b`b`b`b`b`b`b`b`b`b`b`b`b`b`b`b`b`b`b````````````````````````",
"`````````````````````````````b`b`b`b`b`b`b`b`b`b`b`b`b`b`b`b`b`b`b`b`b`b`b`b`b`b`b`b`b`b`b`b`b`b`b`b`b``````````````````````````",
"```````````````````````````````b`b`b`b`b`b`b`b`b`b`b`b`b`b`b`b`b`b`b`b`b`b`b`b`b`b`b`b`b`b`b`b`b`b`b````````````````````````````",
"```````````````````````````````````b`b`b`b`b`b`b`b`b`b`b`b`b`b`b`b`b`b`b`b`b`b`b`b`b`b`b`b`b`b`b````````````````````````````````",
"```````````````````````````````````````b`b`b`b`b`b`b`b`b`b`b`b`b`b`b`b`b`b`b`b`b`b`b`b`b`b`b````````````````````````````````````",
"```````````````````````````````````````````b`b`b`b`b`b`b`b`b`b`b`b`b`b`b`b`b`b`b`b`b`b`b````````````````````````````````````````",
"````````````````````````````````````````````````.#`b`b`b`b`b`b`b`b`b`b`b`b`b`b`b`b``````````````````````````````````````````````"
};
